<svg xmlns="http://www.w3.org/2000/svg" width="34" height="44" viewBox="0 0 34 44"><g id="en-US_globalnav_links_vision_image_large"><rect id="box_" width="34" height="44" fill="none"/><path id="art_" d="m.4043,17.5449h1.1074l2.4844,7.0898h.0938l2.4844-7.0898h1.1074l-3.1172,8.4551h-1.043L.4043,17.5449Zm8.3467.2168c0-.3867.3164-.7031.7031-.7031s.7031.3164.7031.7031-.3164.7031-.7031.7031-.7031-.3164-.7031-.7031Zm.1875,1.9219h1.0195v6.3164h-1.0195v-6.3164Zm2.499,4.7051h1.043c.1699.5273.6738.873,1.4824.873.8496,0,1.4531-.4043,1.4531-.9785v-.0117c0-.4277-.3223-.7266-1.1016-.9141l-.9785-.2344c-1.1836-.2812-1.7168-.7969-1.7168-1.7051v-.0059c0-1.0488,1.0078-1.8398,2.3496-1.8398,1.3242,0,2.2441.6621,2.3848,1.6934h-1.002c-.1348-.498-.627-.8438-1.3887-.8438-.75,0-1.3008.3867-1.3008.9434v.0117c0,.4277.3164.6973,1.0605.8789l.9727.2344c1.1895.2871,1.7637.8027,1.7637,1.7051v.0117c0,1.125-1.0957,1.9043-2.5312,1.9043-1.4062,0-2.373-.6797-2.4902-1.7227Zm6.3203-6.627c0-.3867.3164-.7031.7031-.7031s.7031.3164.7031.7031-.3164.7031-.7031.7031-.7031-.3164-.7031-.7031Zm.1875,1.9219h1.0195v6.3164h-1.0195v-6.3164Zm2.5049,3.1641v-.0117c0-2.0273,1.1133-3.2637,2.9121-3.2637s2.9121,1.2363,2.9121,3.2637v.0117c0,2.0215-1.1133,3.2637-2.9121,3.2637s-2.9121-1.2422-2.9121-3.2637Zm4.7812,0v-.0117c0-1.4941-.6738-2.3613-1.8691-2.3613s-1.8691.8672-1.8691,2.3613v.0117c0,1.4883.6738,2.3613,1.8691,2.3613s1.8691-.873,1.8691-2.3613Zm2.5049-3.1641h1.0195v.9492h.0938c.3164-.668.9082-1.0605,1.8398-1.0605,1.418,0,2.209.8379,2.209,2.3379v4.0898h-1.0195v-3.8438c0-1.1367-.4688-1.6816-1.4766-1.6816s-1.6465.6797-1.6465,1.7871v3.7383h-1.0195v-6.3164Z"/></g></svg>