<svg xmlns="http://www.w3.org/2000/svg" viewBox="0 0 77 44" width="77" height="44"><path d="m0 17.4863h5.2383v.9492h-4.1836v2.7129h3.9668v.9375h-3.9668v2.9062h4.1836v.9492h-5.2383zm6.8994 2.1387h1.0195v.9492h.0938c.3164-.668.9082-1.0605 1.8398-1.0605 1.418 0 2.209.8379 2.209 2.3379v4.0898h-1.0195v-3.8438c0-1.1367-.4688-1.6816-1.4766-1.6816s-1.6465.6797-1.6465 1.7871v3.7383h-1.0195zm7.2803 4.6758v-3.832h-.9961v-.8438h.9961v-1.6348h1.0547v1.6348h1.3828v.8438h-1.3828v3.5742c0 .7441.2578 1.043.9141 1.043.1816 0 .2812-.0059.4688-.0234v.8672c-.1992.0352-.3926.0586-.5918.0586-1.3009-.0001-1.8458-.4806-1.8458-1.6876zm3.4365-1.4942v-.0059c0-1.9512 1.1133-3.2871 2.8301-3.2871s2.7598 1.2773 2.7598 3.1641v.3984h-4.5469c.0293 1.3066.75 2.0684 1.875 2.0684.8555 0 1.3828-.4043 1.5527-.7852l.0234-.0527h1.0195l-.0117.0469c-.2168.8555-1.1191 1.6992-2.6074 1.6992-1.8046 0-2.8945-1.2656-2.8945-3.2461zm1.0606-.5449h3.4922c-.1055-1.248-.7969-1.8398-1.7285-1.8398-.9376 0-1.6524.6386-1.7637 1.8398zm5.9912-2.6367h1.0195v.9375h.0938c.2402-.6621.832-1.0488 1.6875-1.0488.1934 0 .4102.0234.5098.041v.9902c-.2109-.0352-.4043-.0586-.627-.0586-.9727 0-1.6641.6152-1.6641 1.541v3.9141h-1.0195zm4.9658 4.6758v-3.832h-.9961v-.8438h.9961v-1.6348h1.0547v1.6348h1.3828v.8438h-1.3828v3.5742c0 .7441.2578 1.043.9141 1.043.1816 0 .2812-.0059.4688-.0234v.8672c-.1992.0352-.3926.0586-.5918.0586-1.3009-.0001-1.8458-.4806-1.8458-1.6876zm3.4658-.1231v-.0117c0-1.125.832-1.7754 2.3027-1.8633l1.8105-.1113v-.5742c0-.7793-.4746-1.2012-1.418-1.2012-.7559 0-1.2539.2812-1.418.7734l-.0059.0176h-1.0195l.0059-.0352c.1641-.9902 1.125-1.6582 2.4727-1.6582 1.541 0 2.4023.791 2.4023 2.1035v4.3242h-1.0195v-.9316h-.0938c-.3984.6738-1.0605 1.043-1.9102 1.043-1.201 0-2.1092-.7265-2.1092-1.875zm2.3203.9903c1.0371 0 1.793-.6797 1.793-1.582v-.5742l-1.6875.1055c-.9609.0586-1.3828.3984-1.3828 1.0254v.0117c0 .6386.5449 1.0136 1.2773 1.0136zm4.3926-7.4649c0-.3867.3164-.7031.7031-.7031s.7031.3164.7031.7031-.3164.7031-.7031.7031-.7031-.3164-.7031-.7031zm.1875 1.9219h1.0195v6.3164h-1.0195zm2.8213 0h1.0195v.9492h.0938c.3164-.668.9082-1.0605 1.8398-1.0605 1.418 0 2.209.8379 2.209 2.3379v4.0898h-1.0195v-3.8438c0-1.1367-.4688-1.6816-1.4766-1.6816s-1.6465.6797-1.6465 1.7871v3.7383h-1.0195zm6.8818 0h1.0195v.9609h.0938c.2812-.6797.8789-1.0723 1.7051-1.0723.8555 0 1.4531.4512 1.7461 1.1074h.0938c.3398-.668 1.0605-1.1074 1.9336-1.1074 1.2891 0 2.0098.7383 2.0098 2.0625v4.3652h-1.0195v-4.1309c0-.9316-.4277-1.3945-1.3184-1.3945-.8789 0-1.459.6621-1.459 1.4648v4.0605h-1.0195v-4.2891c0-.75-.5156-1.2363-1.3125-1.2363-.8262 0-1.4531.7207-1.4531 1.6113v3.9141h-1.0195v-6.3162zm10.0049 3.1816v-.0059c0-1.9512 1.1133-3.2871 2.8301-3.2871s2.7598 1.2773 2.7598 3.1641v.3984h-4.5469c.0293 1.3066.75 2.0684 1.875 2.0684.8555 0 1.3828-.4043 1.5527-.7852l.0234-.0527h1.0195l-.0116.0469c-.2168.8555-1.1191 1.6992-2.6074 1.6992-1.8047 0-2.8946-1.2656-2.8946-3.2461zm1.0606-.5449h3.4922c-.1055-1.248-.7969-1.8398-1.7285-1.8398-.9376 0-1.6524.6386-1.7637 1.8398zm5.9912-2.6367h1.0195v.9492h.0938c.3164-.668.9082-1.0605 1.8398-1.0605 1.418 0 2.209.8379 2.209 2.3379v4.0898h-1.0195v-3.8438c0-1.1367-.4688-1.6816-1.4766-1.6816s-1.6465.6797-1.6465 1.7871v3.7383h-1.0195zm7.2802 4.6758v-3.832h-.9961v-.8438h.9961v-1.6348h1.0547v1.6348h1.3828v.8438h-1.3828v3.5742c0 .7441.2578 1.043.9141 1.043.1816 0 .2812-.0059.4688-.0234v.8672c-.1992.0352-.3926.0586-.5918.0586-1.3008-.0001-1.8458-.4806-1.8458-1.6876z"/></svg>