<svg height="44" viewBox="0 0 30 44" width="30" xmlns="http://www.w3.org/2000/svg"><path d="m26.5679 20.4629c1.002 0 1.67.738 1.693 1.857h-3.48c.076-1.119.779-1.857 1.787-1.857zm2.754 2.672v-.387c0-1.963-1.037-3.176-2.742-3.176-1.735 0-2.848 1.289-2.848 3.276 0 1.998 1.096 3.263 2.848 3.263 1.383 0 2.367-.668 2.66-1.746h-1.008c-.264.557-.814.856-1.629.856-1.072 0-1.769-.791-1.822-2.039v-.047zm-9.547-3.451h.96v.937h.094c.188-.615.914-1.049 1.752-1.049.164 0 .375.012.504.03v1.007c-.082-.023-.445-.058-.644-.058-.961 0-1.659 1.098-1.659 1.535v3.914h-1.007zm-4.27 5.519c-1.195 0-1.869-.867-1.869-2.361 0-1.5.674-2.361 1.869-2.361 1.196 0 1.87.861 1.87 2.361 0 1.494-.674 2.361-1.87 2.361zm0-5.631c-1.798 0-2.912 1.237-2.912 3.27 0 2.027 1.114 3.269 2.912 3.269 1.799 0 2.913-1.242 2.913-3.269 0-2.033-1.114-3.27-2.913-3.27zm-5.478-1.475v1.635h1.407v.843h-1.407v3.575c0 .744.282 1.06.938 1.06.182 0 .281-.006.469-.023v.849c-.199.035-.393.059-.592.059-1.301 0-1.822-.481-1.822-1.688v-3.832h-1.02v-.843h1.02v-1.635zm-8.103 5.694c.129.885.973 1.447 2.174 1.447 1.137 0 1.975-.615 1.975-1.453 0-.72-.527-1.177-1.693-1.47l-1.084-.282c-1.53-.386-2.192-1.078-2.192-2.279 0-1.436 1.201-2.408 2.988-2.408 1.635 0 2.854.972 2.942 2.338h-1.061c-.146-.867-.861-1.383-1.916-1.383-1.125 0-1.869.562-1.869 1.418 0 .662.463 1.043 1.629 1.342l.885.234c1.752.439 2.455 1.119 2.455 2.361 0 1.553-1.225 2.543-3.158 2.543-1.793 0-3.03-.949-3.141-2.408z"/></svg>