<svg height="16" viewBox="0 0 16 16" width="16" xmlns="http://www.w3.org/2000/svg"><path d="m0 8a8.0474 8.0474 0 0 1 7.9922-8 8.0609 8.0609 0 0 1 8.0078 8 8.0541 8.0541 0 0 1 -8 8 8.0541 8.0541 0 0 1 -8-8zm5.6549 3.2863 2.3373-2.353 2.3451 2.353a.6935.6935 0 0 0 .4627.1961.6662.6662 0 0 0 .6667-.6667.6777.6777 0 0 0 -.1961-.4706l-2.3451-2.3373 2.3529-2.3607a.5943.5943 0 0 0 .1961-.4549.66.66 0 0 0 -.6667-.6589.6142.6142 0 0 0 -.447.1961l-2.3686 2.3606-2.353-2.3527a.6152.6152 0 0 0 -.447-.1883.6529.6529 0 0 0 -.6667.651.6264.6264 0 0 0 .1961.4549l2.3451 2.3529-2.3451 2.353a.61.61 0 0 0 -.1961.4549.6661.6661 0 0 0 .6667.6667.6589.6589 0 0 0 .4627-.1961z"/></svg>