<svg height="44" viewBox="0 0 75 44" width="75" xmlns="http://www.w3.org/2000/svg"><path d="m69.7295 28.2349v-.861c.123.023.281.029.422.029.58 0 .896-.275 1.16-1.037l.117-.375-2.338-6.322h1.09l1.735 5.197h.093l1.729-5.197h1.072l-2.467 6.703c-.539 1.465-1.043 1.898-2.162 1.898-.135 0-.31-.012-.451-.035zm-1.646-2.25h-.96v-.99h-.094c-.317.703-.99 1.101-1.957 1.101-1.418 0-2.156-.843-2.156-2.338v-4.089h1.007v3.843c0 1.137.422 1.664 1.43 1.664 1.113 0 1.723-.662 1.723-1.769v-3.738h1.007zm-9.378-.932c1.272 0 1.94-.515 1.94-1.494 0-.978-.692-1.476-2.04-1.476h-1.986v2.97zm-2.086-3.879h1.688c1.277 0 1.927-.457 1.927-1.353 0-.861-.609-1.359-1.658-1.359h-1.957zm-1.055 4.811v-8.455h3.235c1.553 0 2.502.814 2.502 2.109 0 .879-.645 1.676-1.459 1.823v.093c1.154.147 1.887.938 1.887 2.057 0 1.488-1.067 2.373-2.866 2.373zm-6.195-3.158c0-1.5-.674-2.362-1.869-2.362-1.196 0-1.87.862-1.87 2.362 0 1.494.674 2.361 1.87 2.361 1.195 0 1.869-.867 1.869-2.361zm-4.782 0c0-2.033 1.114-3.27 2.913-3.27 1.798 0 2.912 1.237 2.912 3.27 0 2.027-1.114 3.269-2.912 3.269-1.799 0-2.913-1.242-2.913-3.269zm-2.615-4.793v1.635h1.406v.843h-1.406v3.575c0 .744.281 1.06.937 1.06.182 0 .281-.006.469-.023v.849c-.199.035-.393.059-.592.059-1.301 0-1.822-.481-1.822-1.688v-3.832h-1.02v-.843h1.02v-1.635zm-11.219 4.271h3.481c-.024-1.119-.692-1.857-1.693-1.857-1.008 0-1.711.738-1.788 1.857zm4.459 2.045c-.293 1.078-1.277 1.746-2.66 1.746-1.752 0-2.847-1.265-2.847-3.263 0-1.987 1.113-3.276 2.847-3.276 1.705 0 2.742 1.213 2.742 3.176v.387h-4.541v.047c.053 1.248.75 2.039 1.823 2.039.814 0 1.365-.299 1.629-.856zm-9.337-4.681h.961v.937h.094c.188-.615.914-1.049 1.752-1.049.164 0 .375.012.504.03v1.007c-.082-.023-.445-.058-.645-.058-.96 0-1.658.644-1.658 1.535v3.914h-1.008zm-6.122 2.636h3.481c-.024-1.119-.692-1.857-1.693-1.857-1.008 0-1.711.738-1.788 1.857zm4.459 2.045c-.293 1.078-1.277 1.746-2.66 1.746-1.752 0-2.847-1.265-2.847-3.263 0-1.987 1.113-3.276 2.847-3.276 1.705 0 2.742 1.213 2.742 3.176v.387h-4.541v.047c.053 1.248.75 2.039 1.823 2.039.814 0 1.365-.299 1.629-.856zm-12.332-7.189h1.008v3.504h.093c.317-.698.979-1.108 1.946-1.108 1.336 0 2.179.856 2.179 2.338v4.09h-1.007v-3.844c0-1.119-.504-1.676-1.459-1.676-1.131 0-1.752.715-1.752 1.782v3.738h-1.008zm-8.361 8.824h-.996l-2.303-8.455h1.102l1.681 6.873h.071l1.892-6.873h1.067l1.892 6.873h.071l1.681-6.873h1.102l-2.303 8.455h-.996l-1.945-6.674h-.071z"/></svg>